<?xml version="1.0" encoding="utf-8"?>
<!-- Generator: Adobe Illustrator 25.4.1, SVG Export Plug-In . SVG Version: 6.00 Build 0)  -->
<svg version="1.1" id="Layer_1" xmlns="http://www.w3.org/2000/svg" xmlns:xlink="http://www.w3.org/1999/xlink" x="0px" y="0px"
	 viewBox="0 0 159.6 180.5" style="enable-background:new 0 0 159.6 180.5;" xml:space="preserve">
<style type="text/css">
	.st0{fill:none;stroke:#FFFFFF;stroke-width:7.8268;stroke-miterlimit:10;}
	.st1{fill:none;}
	.st2{fill:#020203;}
	.st3{fill:#1B3356;}
	.st4{fill:#E10818;}
	.st5{fill:#09819C;}
</style>
<g>
	<path class="st0" d="M154.8,51.4c-0.6-3.2-2.6-6.1-5.5-7.8L101.5,16L85.8,7c-3.6-2-7.9-2-11.5,0L42.6,25.3L10.8,43.6
		C10.2,44,9.6,44.5,9.1,45c-2.5,2.2-4,5.2-4,8.6v0.1l0,51.2l0,22.1c0,4.1,2.2,7.8,5.7,9.9l63.5,36.7c0.7,0.4,1.4,0.6,2.1,0.9
		c3.1,1,6.5,0.8,9.4-0.9l63.5-36.6c3.6-2.1,5.7-5.8,5.8-9.9l0-22l0-13.8V53.6C155.1,52.9,154.9,52.1,154.8,51.4z M104.9,101.6
		c0,1.9-1,3.6-2.6,4.5l-22.2,12.8l-22.2-12.8c-1.6-0.9-2.6-2.7-2.6-4.5l0-25.6c0,0,0,0,0,0l22.2-12.8c1.6-0.9,3.6-0.9,5.2,0
		l22.2,12.8L104.9,101.6z"/>
	<path class="st1" d="M77.5,63.1L55.3,75.9c0,0,0,0,0,0l0,25.6c0,1.9,1,3.6,2.6,4.5l22.2,12.8l22.2-12.8c1.6-0.9,2.6-2.7,2.6-4.5
		l0-25.6L82.7,63.1C81.1,62.2,79.1,62.2,77.5,63.1z"/>
	<polygon class="st2" points="5.1,104.9 5.1,104.9 5.1,53.7 	"/>
	<polygon class="st2" points="155.1,104.9 155.1,91.1 155.1,104.9 	"/>
	<path class="st3" d="M55.3,75.9L55.3,75.9l22.2-12.8c1.6-0.9,3.6-0.9,5.2,0l22.2,12.8v0l0,0c21,12.1,46.9-1.4,49.9-24.5
		c-0.6-3.2-2.6-6.1-5.5-7.8L101.5,16L85.8,7c-3.6-2-7.9-2-11.5,0L42.6,25.3L10.8,43.6C10.2,44,9.6,44.5,9.1,45
		C30.6,36,55.3,51.7,55.3,75.9z"/>
	<path class="st4" d="M80.1,118.9L80.1,118.9l-22.2-12.8c-1.6-0.9-2.6-2.7-2.6-4.5l0-25.6c0,0,0,0,0,0l0,0C55.3,51.7,30.6,36,9.1,45
		c-2.5,2.2-4,5.2-4,8.6v0.1l0,51.2l0,22.1c0,4.1,2.2,7.8,5.7,9.9l63.5,36.7c0.7,0.4,1.4,0.6,2.1,0.9C57.9,160.3,59.1,131,80.1,118.9
		z"/>
	<path class="st5" d="M154.8,51.4c-3,23.1-28.9,36.7-49.9,24.5l0,0v0l0,25.6c0,1.9-1,3.6-2.6,4.5l-22.2,12.8l0,0
		c-21,12.1-22.2,41.4-3.7,55.5c3.1,1,6.5,0.8,9.4-0.9l63.5-36.6c3.6-2.1,5.7-5.8,5.8-9.9l0-22l0-13.8V53.6
		C155.1,52.9,154.9,52.1,154.8,51.4z"/>
</g>
</svg>
